<svg xmlns="http://www.w3.org/2000/svg" viewBox="0 0 32 32" aria-hidden="true">
  <path fill="#f6d58a" d="M4.2 24.5c5.6-2.1 14.8-2.1 23.6.1v3.7H4.2v-3.8Z"/>
  <path fill="none" stroke="#8a5a28" stroke-linecap="round" stroke-width="1.8" d="M7.4 8.4v17m17.2-17v17M6.3 25.4h19.4"/>
  <path fill="#fff7e8" stroke="#8a5a28" stroke-linejoin="round" stroke-width="1.6" d="M6.1 8.5h19.8l-1.8 4.1H7.9L6.1 8.5Z"/>
  <path fill="#fff" stroke="#22515c" stroke-linejoin="round" stroke-width="1.5" d="M7.6 17.2h16.8l1.7 5.2H5.9l1.7-5.2Z"/>
  <path fill="#e7f8fb" d="M8.8 18.2h14.4l.9 2.8H7.9l.9-2.8Z"/>
  <path fill="#fff" stroke="#22515c" stroke-linejoin="round" stroke-width="1.2" d="M8.4 14.1h5.5v3.1H8.4z"/>
  <path fill="#fff" stroke="#22515c" stroke-linejoin="round" stroke-width="1.2" d="M18.1 14.1h5.5v3.1h-5.5z"/>
  <path fill="none" stroke="#8a5a28" stroke-linecap="round" stroke-width="1.6" d="M7.8 22.5 6.6 26m17.6-3.5 1.2 3.5"/>
  <path fill="#fff8ef" d="M8.6 9.5h14.8l-.8 1.8H9.4l-.8-1.8Z"/>
  <path fill="#ef233c" d="M14.8 17.2h2.4v5.2h-2.4z"/>
</svg>
